<svg width="256" height="256" viewBox="0 0 512 512" fill="none" xmlns="http://www.w3.org/2000/svg">
    <g clip-path="url(#clip0_1_4)">
        <rect width="512" height="512" fill="url(#paint0_radial_1_4)"/>
        <path d="M416.93 202.321C473.233 101.21 456.856 51.6928 456.856 51.6928C456.856 51.6928 408.23 36.2063 307.724 93.1152C249.905 125.854 201.939 162.442 154.327 203.666C123.731 230.157 95.0413 261.133 65.4245 294.062L80.3307 308.968L63.6517 325.647L81.1238 343.119L64.4448 359.798L149.922 445.275L166.601 428.596L184.558 446.553L201.237 429.874L216.557 445.195C249.533 415.624 280.54 386.966 306.974 356.313C348.11 308.612 384.539 260.489 416.93 202.321Z" fill="url(#paint1_linear_1_4)"/>
        <path d="M72.6509 368.004L142.667 438.02L107.518 464.682L48.1108 405.274L72.6509 368.004Z" fill="#717171"/>
        <path d="M375.838 345.877C381.976 338.204 383.968 328.012 381.17 318.593L362.645 256.231L245.463 373.414L251.69 419.858C255.198 446.025 288.357 455.228 304.85 434.612L375.838 345.877Z" fill="#FF5252"/>
        <path d="M165.999 135.179C173.334 129.181 183.071 127.002 192.263 129.3L250.196 143.782L133.014 260.964L97.2694 257.969C70.3982 255.717 59.9095 221.916 80.7855 204.848L165.999 135.179Z" fill="#FF5252"/>
    </g>
    <defs>
        <radialGradient id="paint0_radial_1_4" cx="0" cy="0" r="1" gradientUnits="userSpaceOnUse" gradientTransform="rotate(48.3109) scale(685.624 384.912)">
            <stop stop-color="#FF5252" stop-opacity="0.25"/>
            <stop offset="1" stop-color="#D9D9D9" stop-opacity="0.44"/>
        </radialGradient>
        <linearGradient id="paint1_linear_1_4" x1="496.107" y1="90.944" x2="67.1466" y2="541.261" gradientUnits="userSpaceOnUse">
            <stop stop-color="#CACACA"/>
            <stop offset="1" stop-color="#838383"/>
        </linearGradient>
        <clipPath id="clip0_1_4">
            <rect width="512" height="512" fill="white"/>
        </clipPath>
    </defs>
</svg>
