<svg width="256" height="256" viewBox="0 0 512 512" fill="none" xmlns="http://www.w3.org/2000/svg">
<g clip-path="url(#clip0_1_4)">
<rect width="512" height="512" fill="url(#paint0_radial_1_4)"/>
<g filter="url(#filter0_ii_1_4)">
<path d="M416.93 202.321C473.233 101.21 456.856 51.6928 456.856 51.6928C456.856 51.6928 408.23 36.2063 307.724 93.1152C249.905 125.854 201.939 162.442 154.327 203.666C123.731 230.157 95.0413 261.133 65.4245 294.062L80.3307 308.968L63.6517 325.647L81.1238 343.119L64.4448 359.798L149.922 445.275L166.601 428.596L184.558 446.553L201.237 429.874L216.557 445.195C249.533 415.624 280.54 386.966 306.974 356.313C348.11 308.612 384.539 260.489 416.93 202.321Z" fill="url(#paint1_linear_1_4)"/>
</g>
<g filter="url(#filter1_ii_1_4)">
<path d="M72.6509 368.004L142.667 438.02L107.518 464.682L48.1108 405.274L72.6509 368.004Z" fill="#575757"/>
</g>
<path d="M375.838 345.877C381.976 338.204 383.968 328.012 381.17 318.593L362.645 256.231L245.463 373.414L251.69 419.858C255.198 446.025 288.357 455.228 304.85 434.612L375.838 345.877Z" fill="#FF5252"/>
<path d="M165.999 135.179C173.334 129.181 183.071 127.002 192.263 129.3L250.196 143.782L133.014 260.964L97.2694 257.969C70.3982 255.717 59.9095 221.916 80.7855 204.848L165.999 135.179Z" fill="#FF5252"/>
<g opacity="0.6">
<path d="M98 55L102.862 68.1384L116 73L102.862 77.8616L98 91L93.1384 77.8616L80 73L93.1384 68.1384L98 55Z" fill="#F2736B"/>
<path d="M362 447L366.862 460.138L380 465L366.862 469.862L362 483L357.138 469.862L344 465L357.138 460.138L362 447Z" fill="#F2736B"/>
<path d="M446 293L450.862 306.138L464 311L450.862 315.862L446 329L441.138 315.862L428 311L441.138 306.138L446 293Z" fill="#F2736B"/>
</g>
<g opacity="0.6">
<path d="M207 55L210.241 63.7589L219 67L210.241 70.2411L207 79L203.759 70.2411L195 67L203.759 63.7589L207 55Z" fill="#F2736B"/>
<path d="M459 423L462.241 431.759L471 435L462.241 438.241L459 447L455.759 438.241L447 435L455.759 431.759L459 423Z" fill="#F2736B"/>
<path d="M68 139L71.2411 147.759L80 151L71.2411 154.241L68 163L64.7589 154.241L56 151L64.7589 147.759L68 139Z" fill="#F2736B"/>
</g>
</g>
<defs>
<filter id="filter0_ii_1_4" x="47.6517" y="33.7692" width="427.42" height="428.784" filterUnits="userSpaceOnUse" color-interpolation-filters="sRGB">
<feFlood flood-opacity="0" result="BackgroundImageFix"/>
<feBlend mode="normal" in="SourceGraphic" in2="BackgroundImageFix" result="shape"/>
<feColorMatrix in="SourceAlpha" type="matrix" values="0 0 0 0 0 0 0 0 0 0 0 0 0 0 0 0 0 0 127 0" result="hardAlpha"/>
<feOffset dx="-16" dy="-16"/>
<feGaussianBlur stdDeviation="16"/>
<feComposite in2="hardAlpha" operator="arithmetic" k2="-1" k3="1"/>
<feColorMatrix type="matrix" values="0 0 0 0 0 0 0 0 0 0 0 0 0 0 0 0 0 0 0.25 0"/>
<feBlend mode="normal" in2="shape" result="effect1_innerShadow_1_4"/>
<feColorMatrix in="SourceAlpha" type="matrix" values="0 0 0 0 0 0 0 0 0 0 0 0 0 0 0 0 0 0 127 0" result="hardAlpha"/>
<feOffset dx="16" dy="16"/>
<feGaussianBlur stdDeviation="16"/>
<feComposite in2="hardAlpha" operator="arithmetic" k2="-1" k3="1"/>
<feColorMatrix type="matrix" values="0 0 0 0 1 0 0 0 0 1 0 0 0 0 1 0 0 0 0.25 0"/>
<feBlend mode="normal" in2="effect1_innerShadow_1_4" result="effect2_innerShadow_1_4"/>
</filter>
<filter id="filter1_ii_1_4" x="32.1108" y="352.004" width="126.556" height="128.677" filterUnits="userSpaceOnUse" color-interpolation-filters="sRGB">
<feFlood flood-opacity="0" result="BackgroundImageFix"/>
<feBlend mode="normal" in="SourceGraphic" in2="BackgroundImageFix" result="shape"/>
<feColorMatrix in="SourceAlpha" type="matrix" values="0 0 0 0 0 0 0 0 0 0 0 0 0 0 0 0 0 0 127 0" result="hardAlpha"/>
<feOffset dx="16" dy="16"/>
<feGaussianBlur stdDeviation="16"/>
<feComposite in2="hardAlpha" operator="arithmetic" k2="-1" k3="1"/>
<feColorMatrix type="matrix" values="0 0 0 0 1 0 0 0 0 1 0 0 0 0 1 0 0 0 0.25 0"/>
<feBlend mode="normal" in2="shape" result="effect1_innerShadow_1_4"/>
<feColorMatrix in="SourceAlpha" type="matrix" values="0 0 0 0 0 0 0 0 0 0 0 0 0 0 0 0 0 0 127 0" result="hardAlpha"/>
<feOffset dx="-16" dy="-16"/>
<feGaussianBlur stdDeviation="16"/>
<feComposite in2="hardAlpha" operator="arithmetic" k2="-1" k3="1"/>
<feColorMatrix type="matrix" values="0 0 0 0 0 0 0 0 0 0 0 0 0 0 0 0 0 0 0.25 0"/>
<feBlend mode="normal" in2="effect1_innerShadow_1_4" result="effect2_innerShadow_1_4"/>
</filter>
<radialGradient id="paint0_radial_1_4" cx="0" cy="0" r="1" gradientUnits="userSpaceOnUse" gradientTransform="rotate(48.3109) scale(685.624 384.912)">
<stop stop-color="#FF5252" stop-opacity="0.25"/>
<stop offset="1" stop-color="#D9D9D9" stop-opacity="0.44"/>
</radialGradient>
<linearGradient id="paint1_linear_1_4" x1="496.107" y1="90.944" x2="67.1466" y2="541.261" gradientUnits="userSpaceOnUse">
<stop stop-color="#CACACA"/>
<stop offset="1" stop-color="#838383"/>
</linearGradient>
<clipPath id="clip0_1_4">
<rect width="512" height="512" fill="white"/>
</clipPath>
</defs>
</svg>
